<?xml version="1.0" encoding="UTF-8"?>
<!DOCTYPE svg PUBLIC "-//W3C//DTD SVG 1.1//EN" "http://www.w3.org/Graphics/SVG/1.1/DTD/svg11.dtd">
<svg xmlns="http://www.w3.org/2000/svg" version="1.1" width="500px" height="500px" style="shape-rendering:geometricPrecision; text-rendering:geometricPrecision; image-rendering:optimizeQuality; fill-rule:evenodd; clip-rule:evenodd" xmlns:xlink="http://www.w3.org/1999/xlink">
<g><path style="opacity:0.004" fill="#fe0000" d="M 14.5,-0.5 C 22.1667,-0.5 29.8333,-0.5 37.5,-0.5C 36.7813,1.88813 35.1146,3.38813 32.5,4C 31.1279,5.24186 30.1279,6.74186 29.5,8.5C 25.0401,10.4592 22.2068,13.7926 21,18.5C 15.1189,20.2358 12.1189,24.2358 12,30.5C 9.66667,31.8333 7.33333,33.1667 5,34.5C 3.83976,38.9399 2.00643,42.9399 -0.5,46.5C -0.5,37.5 -0.5,28.5 -0.5,19.5C 0.271345,14.9912 2.77135,11.6579 7,9.5C 8.98174,5.69756 11.4817,2.36422 14.5,-0.5 Z"/></g>
<g><path style="opacity:0.004" fill="#fe00ff" d="M 37.5,-0.5 C 48.8333,-0.5 60.1667,-0.5 71.5,-0.5C 45.8189,18.8816 24.6522,42.215 8,69.5C 7.66667,71.1667 7.33333,72.8333 7,74.5C 5.98873,75.3366 4.82207,75.67 3.5,75.5C 2.14689,80.2587 0.81356,84.9253 -0.5,89.5C -0.5,75.1667 -0.5,60.8333 -0.5,46.5C 2.00643,42.9399 3.83976,38.9399 5,34.5C 7.33333,33.1667 9.66667,31.8333 12,30.5C 12.1189,24.2358 15.1189,20.2358 21,18.5C 22.2068,13.7926 25.0401,10.4592 29.5,8.5C 30.1279,6.74186 31.1279,5.24186 32.5,4C 35.1146,3.38813 36.7813,1.88813 37.5,-0.5 Z"/></g>
<g><path style="opacity:0.008" fill="#ff007f" d="M 71.5,-0.5 C 83.8333,-0.5 96.1667,-0.5 108.5,-0.5C 79.0147,15.1725 54.848,36.5058 36,63.5C 31.8916,66.0895 29.7249,69.7562 29.5,74.5C 27.4078,74.5614 25.9078,75.5614 25,77.5C 23.1951,81.3865 21.6951,85.3865 20.5,89.5C 18.6675,90.2485 17.0009,91.2485 15.5,92.5C 13.9053,98.0654 12.7386,103.732 12,109.5C 10.8068,111.497 9.30675,113.164 7.5,114.5C 4.91732,115.985 3.58399,118.318 3.5,121.5C 2.57185,127.348 1.23852,133.015 -0.5,138.5C -0.5,122.167 -0.5,105.833 -0.5,89.5C 0.81356,84.9253 2.14689,80.2587 3.5,75.5C 4.82207,75.67 5.98873,75.3366 7,74.5C 7.33333,72.8333 7.66667,71.1667 8,69.5C 24.6522,42.215 45.8189,18.8816 71.5,-0.5 Z"/></g>
<g><path style="opacity:0.012" fill="#ff00ac" d="M 108.5,-0.5 C 120.167,-0.5 131.833,-0.5 143.5,-0.5C 82.2261,23.2723 40.3928,65.939 18,127.5C 16.9196,129.996 15.5862,132.33 14,134.5C 10.9876,144.705 8.48765,155.038 6.5,165.5C 5.52242,165.977 4.68909,166.643 4,167.5C 2.00621,181.935 0.506207,196.269 -0.5,210.5C -0.5,186.5 -0.5,162.5 -0.5,138.5C 1.23852,133.015 2.57185,127.348 3.5,121.5C 6.98681,120.555 8.32014,118.222 7.5,114.5C 9.30675,113.164 10.8068,111.497 12,109.5C 12.7386,103.732 13.9053,98.0654 15.5,92.5C 17.0009,91.2485 18.6675,90.2485 20.5,89.5C 21.6951,85.3865 23.1951,81.3865 25,77.5C 25.9078,75.5614 27.4078,74.5614 29.5,74.5C 29.7249,69.7562 31.8916,66.0895 36,63.5C 54.848,36.5058 79.0147,15.1725 108.5,-0.5 Z"/></g>
<g><path style="opacity:0.016" fill="#fe007f" d="M 143.5,-0.5 C 150.833,-0.5 158.167,-0.5 165.5,-0.5C 110.448,15.7985 68.2816,48.1318 39,96.5C 37.2503,99.2464 36.2503,102.246 36,105.5C 31.6464,109.542 29.4797,114.542 29.5,120.5C 28.5,120.5 27.5,120.5 26.5,120.5C 23.9543,127.976 22.121,135.643 21,143.5C 18.6829,144.82 16.6829,146.486 15,148.5C 13.6996,159.138 12.6996,169.804 12,180.5C 11.5172,185.296 9.5172,189.296 6,192.5C 5.02655,194.392 4.35989,196.392 4,198.5C 2.83372,217.827 1.66706,237.161 0.5,256.5C 1.62565,275.51 2.79232,294.51 4,313.5C 4.33333,315.167 4.66667,316.833 5,318.5C 7.54098,321.088 9.54098,324.088 11,327.5C 12.5128,339.806 13.8462,352.14 15,364.5C 17.0892,365.991 19.0892,367.658 21,369.5C 22.121,377.357 23.9543,385.024 26.5,392.5C 27.5,392.5 28.5,392.5 29.5,392.5C 29.378,397.7 31.2114,402.033 35,405.5C 55.4594,447.459 86.9594,478.792 129.5,499.5C 123.833,499.5 118.167,499.5 112.5,499.5C 54.8247,464.491 19.658,413.824 7,347.5C 6,346.833 5,346.167 4,345.5C 2.15256,331.049 0.652561,316.715 -0.5,302.5C -0.5,271.833 -0.5,241.167 -0.5,210.5C 0.506207,196.269 2.00621,181.935 4,167.5C 4.68909,166.643 5.52242,165.977 6.5,165.5C 8.48765,155.038 10.9876,144.705 14,134.5C 15.5862,132.33 16.9196,129.996 18,127.5C 40.3928,65.939 82.2261,23.2723 143.5,-0.5 Z"/></g>
<g><path style="opacity:0.016" fill="#fe00be" d="M 165.5,-0.5 C 170.833,-0.5 176.167,-0.5 181.5,-0.5C 93.4795,21.3527 38.9795,76.0193 18,163.5C 16.4725,166.417 15.1392,169.417 14,172.5C 12.5175,185.246 10.5175,197.913 8,210.5C 7.66667,219.5 7.33333,228.5 7,237.5C 5.43302,243.599 4.26635,249.766 3.5,256C 4.15101,262.589 5.31767,269.089 7,275.5C 7.7685,322.219 18.4352,366.219 39,407.5C 62.0692,449.068 95.2358,479.735 138.5,499.5C 135.5,499.5 132.5,499.5 129.5,499.5C 86.9594,478.792 55.4594,447.459 35,405.5C 31.2114,402.033 29.378,397.7 29.5,392.5C 28.5,392.5 27.5,392.5 26.5,392.5C 23.9543,385.024 22.121,377.357 21,369.5C 19.0892,367.658 17.0892,365.991 15,364.5C 13.8462,352.14 12.5128,339.806 11,327.5C 9.54098,324.088 7.54098,321.088 5,318.5C 4.66667,316.833 4.33333,315.167 4,313.5C 2.79232,294.51 1.62565,275.51 0.5,256.5C 1.66706,237.161 2.83372,217.827 4,198.5C 4.35989,196.392 5.02655,194.392 6,192.5C 9.5172,189.296 11.5172,185.296 12,180.5C 12.6996,169.804 13.6996,159.138 15,148.5C 16.6829,146.486 18.6829,144.82 21,143.5C 22.121,135.643 23.9543,127.976 26.5,120.5C 27.5,120.5 28.5,120.5 29.5,120.5C 29.4797,114.542 31.6464,109.542 36,105.5C 36.2503,102.246 37.2503,99.2464 39,96.5C 68.2816,48.1318 110.448,15.7985 165.5,-0.5 Z"/></g>
<g><path style="opacity:0.02" fill="#ff0098" d="M 181.5,-0.5 C 221.167,-0.5 260.833,-0.5 300.5,-0.5C 380.406,18.2659 434.239,65.9325 462,142.5C 462.749,145.757 464.416,148.424 467,150.5C 466.373,158.337 468.373,165.337 473,171.5C 473.696,180.018 474.529,188.518 475.5,197C 476.298,199.287 477.631,201.12 479.5,202.5C 479.089,215.947 479.756,229.28 481.5,242.5C 481.5,251.5 481.5,260.5 481.5,269.5C 479.755,282.748 479.089,296.081 479.5,309.5C 478.571,310.936 477.405,312.269 476,313.5C 474.67,322.791 473.67,332.124 473,341.5C 468.373,347.663 466.373,354.663 467,362.5C 462.857,366.586 460.857,371.586 461,377.5C 459.171,379.156 457.837,381.156 457,383.5C 434.647,436.689 397.147,475.356 344.5,499.5C 335.5,499.5 326.5,499.5 317.5,499.5C 387.393,475.941 433.726,429.275 456.5,359.5C 457.481,349.805 458.981,340.138 461,330.5C 464.306,329.86 466.306,327.86 467,324.5C 467.499,320.179 467.666,315.846 467.5,311.5C 468.257,305.254 470.09,299.254 473,293.5C 473.667,268.833 473.667,244.167 473,219.5C 470.213,213.66 468.38,207.66 467.5,201.5C 467.666,197.154 467.499,192.821 467,188.5C 465.096,185.184 462.929,182.184 460.5,179.5C 458.835,170.838 457.502,162.171 456.5,153.5C 429.76,72.9611 374.427,24.1278 290.5,7C 229.359,-4.53163 171.692,4.8017 117.5,35C 79.4579,58.8482 52.7912,91.6815 37.5,133.5C 37.5,133.833 37.5,134.167 37.5,134.5C 36.1154,135.574 34.9487,136.907 34,138.5C 29.264,151.893 25.5973,165.56 23,179.5C 21.7485,181.001 20.7485,182.668 20,184.5C 19.3661,195.585 18.1994,206.585 16.5,217.5C 15.9101,218.766 15.4101,220.099 15,221.5C 14.3333,244.833 14.3333,268.167 15,291.5C 15.4101,292.901 15.9101,294.234 16.5,295.5C 18.1853,306.078 19.352,316.744 20,327.5C 23.2079,335.845 25.5412,344.512 27,353.5C 30.1165,360.183 32.4498,367.183 34,374.5C 35.4048,375.731 36.5714,377.064 37.5,378.5C 60.542,439.199 103.209,479.533 165.5,499.5C 156.5,499.5 147.5,499.5 138.5,499.5C 95.2358,479.735 62.0692,449.068 39,407.5C 18.4352,366.219 7.7685,322.219 7,275.5C 5.31767,269.089 4.15101,262.589 3.5,256C 4.26635,249.766 5.43302,243.599 7,237.5C 7.33333,228.5 7.66667,219.5 8,210.5C 10.5175,197.913 12.5175,185.246 14,172.5C 15.1392,169.417 16.4725,166.417 18,163.5C 38.9795,76.0193 93.4795,21.3527 181.5,-0.5 Z"/></g>
<g><path style="opacity:0.016" fill="#fe00be" d="M 300.5,-0.5 C 305.833,-0.5 311.167,-0.5 316.5,-0.5C 378.837,17.0188 424.337,54.6855 453,112.5C 454.512,113.257 455.846,114.257 457,115.5C 458.107,121.201 459.273,126.868 460.5,132.5C 463.263,132.744 465.429,134.077 467,136.5C 467.506,145.207 468.339,153.874 469.5,162.5C 474.711,162.558 477.544,165.225 478,170.5C 478.754,181.158 479.254,191.824 479.5,202.5C 477.631,201.12 476.298,199.287 475.5,197C 474.529,188.518 473.696,180.018 473,171.5C 468.373,165.337 466.373,158.337 467,150.5C 464.416,148.424 462.749,145.757 462,142.5C 434.239,65.9325 380.406,18.2659 300.5,-0.5 Z"/></g>
<g><path style="opacity:0.016" fill="#ff007f" d="M 316.5,-0.5 C 323.833,-0.5 331.167,-0.5 338.5,-0.5C 402.12,23.9513 445.62,67.9513 469,131.5C 470.333,132.833 471.667,134.167 473,135.5C 473.749,140.489 474.415,145.489 475,150.5C 477.392,153.228 479.392,156.228 481,159.5C 481.333,166.5 481.667,173.5 482,180.5C 485.65,184.803 487.983,189.803 489,195.5C 489.667,235.833 489.667,276.167 489,316.5C 488.525,322.446 486.192,327.446 482,331.5C 481.667,338.5 481.333,345.5 481,352.5C 479.783,356.366 477.783,359.699 475,362.5C 474.333,367.167 473.667,371.833 473,376.5C 468.857,380.586 466.857,385.586 467,391.5C 452.499,422.243 432.665,449.41 407.5,473C 395.64,483.088 382.974,491.921 369.5,499.5C 364.167,499.5 358.833,499.5 353.5,499.5C 392.745,481.091 423.245,453.091 445,415.5C 448.924,410.923 451.424,405.589 452.5,399.5C 454.39,399.703 455.89,399.037 457,397.5C 457.697,391.679 459.031,386.013 461,380.5C 463.903,379.931 465.903,378.265 467,375.5C 467.6,367.135 468.433,358.802 469.5,350.5C 474.4,350.102 477.233,347.435 478,342.5C 478.794,331.511 479.294,320.511 479.5,309.5C 479.089,296.081 479.755,282.748 481.5,269.5C 483.258,267.859 484.758,265.859 486,263.5C 486.667,258.833 486.667,254.167 486,249.5C 484.951,246.813 483.451,244.48 481.5,242.5C 479.756,229.28 479.089,215.947 479.5,202.5C 479.254,191.824 478.754,181.158 478,170.5C 477.544,165.225 474.711,162.558 469.5,162.5C 468.339,153.874 467.506,145.207 467,136.5C 465.429,134.077 463.263,132.744 460.5,132.5C 459.273,126.868 458.107,121.201 457,115.5C 455.846,114.257 454.512,113.257 453,112.5C 424.337,54.6855 378.837,17.0188 316.5,-0.5 Z"/></g>
<g><path style="opacity:0.012" fill="#ff00ac" d="M 338.5,-0.5 C 350.5,-0.5 362.5,-0.5 374.5,-0.5C 406.445,16.871 432.612,40.5377 453,70.5C 454.512,71.2567 455.846,72.2567 457,73.5C 458.278,77.1653 459.444,80.832 460.5,84.5C 463.522,84.4282 465.688,85.7615 467,88.5C 467.678,93.5399 468.511,98.5399 469.5,103.5C 470.833,103.5 472.167,103.5 473.5,103.5C 473.933,106.166 474.433,108.832 475,111.5C 475.66,113.324 476.827,114.657 478.5,115.5C 479.281,120.418 479.781,125.418 480,130.5C 481.092,132.117 482.592,133.117 484.5,133.5C 486.241,135.977 487.741,138.644 489,141.5C 489.5,148.826 489.666,156.159 489.5,163.5C 490.5,163.5 491.5,163.5 492.5,163.5C 492.168,174.853 492.501,186.186 493.5,197.5C 495.029,198.763 496.695,199.763 498.5,200.5C 498.5,201.167 498.833,201.5 499.5,201.5C 499.5,238.167 499.5,274.833 499.5,311.5C 498.833,311.5 498.5,311.833 498.5,312.5C 496.685,313.63 494.685,314.296 492.5,314.5C 492.5,325.833 492.5,337.167 492.5,348.5C 492.5,348.833 492.5,349.167 492.5,349.5C 491.5,349.5 490.5,349.5 489.5,349.5C 489.666,356.508 489.5,363.508 489,370.5C 488.014,373.806 486.514,376.806 484.5,379.5C 482.592,379.883 481.092,380.883 480,382.5C 479.728,387.549 479.228,392.549 478.5,397.5C 475.245,400.332 473.578,403.999 473.5,408.5C 472.292,409.234 470.959,409.567 469.5,409.5C 468.511,414.46 467.678,419.46 467,424.5C 465.104,426.53 462.937,428.197 460.5,429.5C 459.028,432.717 457.862,436.051 457,439.5C 452.754,441.954 449.92,445.621 448.5,450.5C 440.713,459.457 432.713,468.29 424.5,477C 415.627,484.711 406.627,492.211 397.5,499.5C 388.167,499.5 378.833,499.5 369.5,499.5C 382.974,491.921 395.64,483.088 407.5,473C 432.665,449.41 452.499,422.243 467,391.5C 466.857,385.586 468.857,380.586 473,376.5C 473.667,371.833 474.333,367.167 475,362.5C 477.783,359.699 479.783,356.366 481,352.5C 481.333,345.5 481.667,338.5 482,331.5C 486.192,327.446 488.525,322.446 489,316.5C 489.667,276.167 489.667,235.833 489,195.5C 487.983,189.803 485.65,184.803 482,180.5C 481.667,173.5 481.333,166.5 481,159.5C 479.392,156.228 477.392,153.228 475,150.5C 474.415,145.489 473.749,140.489 473,135.5C 471.667,134.167 470.333,132.833 469,131.5C 445.62,67.9513 402.12,23.9513 338.5,-0.5 Z"/></g>
<g><path style="opacity:0.008" fill="#ff007f" d="M 374.5,-0.5 C 386.5,-0.5 398.5,-0.5 410.5,-0.5C 434.926,17.4251 455.76,38.7584 473,63.5C 473.822,65.7885 474.489,68.1218 475,70.5C 479.848,73.8605 482.348,78.5271 482.5,84.5C 488.568,89.2934 491.235,95.6267 490.5,103.5C 494.307,104.809 496.474,107.476 497,111.5C 498.053,118.602 498.887,125.602 499.5,132.5C 499.5,155.5 499.5,178.5 499.5,201.5C 498.833,201.5 498.5,201.167 498.5,200.5C 498.666,192.826 498.5,185.159 498,177.5C 497.411,172.211 495.577,167.545 492.5,163.5C 493.193,154.24 492.027,145.24 489,136.5C 487.871,134.859 486.371,133.859 484.5,133.5C 482.592,133.117 481.092,132.117 480,130.5C 479.781,125.418 479.281,120.418 478.5,115.5C 479.001,110.513 477.335,106.513 473.5,103.5C 472.167,103.5 470.833,103.5 469.5,103.5C 468.511,98.5399 467.678,93.5399 467,88.5C 465.688,85.7615 463.522,84.4282 460.5,84.5C 459.444,80.832 458.278,77.1653 457,73.5C 455.846,72.2567 454.512,71.2567 453,70.5C 432.612,40.5377 406.445,16.871 374.5,-0.5 Z"/></g>
<g><path style="opacity:0.004" fill="#fe00ff" d="M 410.5,-0.5 C 421.833,-0.5 433.167,-0.5 444.5,-0.5C 448.528,4.11306 453.028,8.44639 458,12.5C 458.707,14.0806 459.54,15.5806 460.5,17C 466.275,19.1446 469.275,23.3112 469.5,29.5C 472.777,29.4223 475.277,30.7557 477,33.5C 478.743,36.9567 479.743,40.6233 480,44.5C 487.082,45.9177 491.082,50.251 492,57.5C 492.333,61.8333 492.667,66.1667 493,70.5C 494.993,71.914 497.16,72.914 499.5,73.5C 499.5,93.1667 499.5,112.833 499.5,132.5C 498.887,125.602 498.053,118.602 497,111.5C 496.474,107.476 494.307,104.809 490.5,103.5C 491.235,95.6267 488.568,89.2934 482.5,84.5C 482.348,78.5271 479.848,73.8605 475,70.5C 474.489,68.1218 473.822,65.7885 473,63.5C 455.76,38.7584 434.926,17.4251 410.5,-0.5 Z"/></g>
<g><path style="opacity:0.004" fill="#fe0000" d="M 444.5,-0.5 C 452.167,-0.5 459.833,-0.5 467.5,-0.5C 471.478,3.81314 475.478,8.14648 479.5,12.5C 480.53,16.0974 482.697,18.764 486,20.5C 488.531,22.9646 490.031,25.9646 490.5,29.5C 492.258,30.1279 493.758,31.1279 495,32.5C 497.539,36.6139 499.039,40.9473 499.5,45.5C 499.5,54.8333 499.5,64.1667 499.5,73.5C 497.16,72.914 494.993,71.914 493,70.5C 492.667,66.1667 492.333,61.8333 492,57.5C 491.082,50.251 487.082,45.9177 480,44.5C 479.743,40.6233 478.743,36.9567 477,33.5C 475.277,30.7557 472.777,29.4223 469.5,29.5C 469.275,23.3112 466.275,19.1446 460.5,17C 459.54,15.5806 458.707,14.0806 458,12.5C 453.028,8.44639 448.528,4.11306 444.5,-0.5 Z"/></g>
<g><path style="opacity:0.024" fill="#fe007f" d="M 456.5,153.5 C 455.292,152.766 453.959,152.433 452.5,152.5C 432.542,87.6948 390.542,43.1948 326.5,19C 264.039,-1.99608 202.373,0.0039237 141.5,25C 94.6909,46.4703 61.8576,80.637 43,127.5C 40.932,129.396 39.0987,131.396 37.5,133.5C 52.7912,91.6815 79.4579,58.8482 117.5,35C 171.692,4.8017 229.359,-4.53163 290.5,7C 374.427,24.1278 429.76,72.9611 456.5,153.5 Z"/></g>
<g><path style="opacity:0.024" fill="#ff00aa" d="M 456.5,153.5 C 457.502,162.171 458.835,170.838 460.5,179.5C 462.929,182.184 465.096,185.184 467,188.5C 467.499,192.821 467.666,197.154 467.5,201.5C 468.833,238.167 468.833,274.833 467.5,311.5C 467.666,315.846 467.499,320.179 467,324.5C 466.306,327.86 464.306,329.86 461,330.5C 458.981,340.138 457.481,349.805 456.5,359.5C 455.292,360.234 453.959,360.567 452.5,360.5C 450.711,366.771 449.044,373.104 447.5,379.5C 440.349,392.465 433.182,405.465 426,418.5C 396.459,458.901 357.292,485.901 308.5,499.5C 299.833,499.5 291.167,499.5 282.5,499.5C 377.46,480.371 435.626,423.705 457,329.5C 457.881,325.624 459.214,321.958 461,318.5C 461.054,304.45 463.054,290.783 467,277.5C 467.667,263.5 467.667,249.5 467,235.5C 463.164,222.144 461.164,208.477 461,194.5C 457.484,186.933 455.484,178.933 455,170.5C 422.206,66.4529 350.873,13.1196 241,10.5C 135.038,12.5509 66.0376,63.5509 34,163.5C 32.0494,173.333 29.716,182.999 27,192.5C 24.844,210.5 22.844,228.5 21,246.5C 19.5818,301.376 31.2485,353.043 56,401.5C 79.972,443.434 114.805,472.601 160.5,489C 173.496,492.997 186.496,496.497 199.5,499.5C 190.833,499.5 182.167,499.5 173.5,499.5C 119.828,483.966 78.9952,452.3 51,404.5C 50.6077,400.928 48.941,398.261 46,396.5C 44.5394,392.189 43.2061,387.855 42,383.5C 40.0236,382.178 38.5236,380.512 37.5,378.5C 37.3536,371.2 35.1869,364.533 31,358.5C 25.001,340.15 21.6677,321.15 21,301.5C 19.7225,299.253 18.2225,297.253 16.5,295.5C 15.9101,294.234 15.4101,292.901 15,291.5C 14.3333,268.167 14.3333,244.833 15,221.5C 15.4101,220.099 15.9101,218.766 16.5,217.5C 18.4741,215.572 19.9741,213.239 21,210.5C 21.6319,186.972 26.6319,164.638 36,143.5C 36.5022,140.487 37.0022,137.487 37.5,134.5C 37.5,134.167 37.5,133.833 37.5,133.5C 39.0987,131.396 40.932,129.396 43,127.5C 61.8576,80.637 94.6909,46.4703 141.5,25C 202.373,0.0039237 264.039,-1.99608 326.5,19C 390.542,43.1948 432.542,87.6948 452.5,152.5C 453.959,152.433 455.292,152.766 456.5,153.5 Z"/></g>
<g><path style="opacity:0.027" fill="#ff0091" d="M 282.5,499.5 C 254.833,499.5 227.167,499.5 199.5,499.5C 186.496,496.497 173.496,492.997 160.5,489C 114.805,472.601 79.972,443.434 56,401.5C 31.2485,353.043 19.5818,301.376 21,246.5C 22.844,228.5 24.844,210.5 27,192.5C 29.716,182.999 32.0494,173.333 34,163.5C 66.0376,63.5509 135.038,12.5509 241,10.5C 350.873,13.1196 422.206,66.4529 455,170.5C 455.484,178.933 457.484,186.933 461,194.5C 461.164,208.477 463.164,222.144 467,235.5C 467.667,249.5 467.667,263.5 467,277.5C 463.054,290.783 461.054,304.45 461,318.5C 459.214,321.958 457.881,325.624 457,329.5C 435.626,423.705 377.46,480.371 282.5,499.5 Z"/></g>
<g><path style="opacity:0.031" fill="#ff00a0" d="M 230.5,16.5 C 283.42,14.8863 331.42,29.053 374.5,59C 410.217,87.4999 433.883,123.667 445.5,167.5C 446.5,167.5 447.5,167.5 448.5,167.5C 448.85,176.97 450.184,186.303 452.5,195.5C 453.303,197.995 454.803,199.995 457,201.5C 458.988,238.166 458.988,274.833 457,311.5C 454.755,313.012 453.255,315.012 452.5,317.5C 428.907,431.022 358.574,490.689 241.5,496.5C 136.059,492.762 68.2261,441.095 38,341.5C 37.2094,328.88 34.8761,316.547 31,304.5C 30.2957,288.344 28.7957,272.344 26.5,256.5C 28.7742,240.654 30.2742,224.654 31,208.5C 34.875,196.458 37.2084,184.125 38,171.5C 39.2709,168.567 40.9376,165.901 43,163.5C 64.0103,87.413 113.51,40.2463 191.5,22C 204.57,19.6077 217.57,17.7743 230.5,16.5 Z"/></g>
<g><path style="opacity:0.035" fill="#fe008d" d="M 228.5,23.5 C 350.966,24.1775 424.466,84.1775 449,203.5C 450.466,220.997 451.966,238.497 453.5,256C 452.168,271.489 451.001,286.989 450,302.5C 442.662,349.508 423.662,391.175 393,427.5C 357.223,463.004 314.056,483.171 263.5,488C 209.848,492.941 160.848,480.275 116.5,450C 89.3863,428.242 69.2197,401.409 56,369.5C 26.5036,291.067 27.5036,213.067 59,135.5C 85.1897,80.0195 128.356,44.8528 188.5,30C 201.856,27.0512 215.189,24.8845 228.5,23.5 Z"/></g>
<g><path style="opacity:0.035" fill="#fe00a9" d="M 49.5,333.5 C 76.8308,429.183 140.664,479.183 241,483.5C 346.484,478.984 412.817,425.984 440,324.5C 440.378,315.562 442.045,306.895 445,298.5C 447,270.5 447,242.5 445,214.5C 442.131,206.092 440.464,197.425 440,188.5C 413.005,87.0391 346.839,34.0391 241.5,29.5C 138.947,33.6105 74.7806,84.9438 49,183.5C 46.6939,192.533 44.8606,201.533 43.5,210.5C 43.4388,200.76 44.2722,191.093 46,181.5C 47,180.5 48,179.5 49,178.5C 71.6051,88.6448 129.438,38.4781 222.5,28C 282.157,23.4449 334.823,40.1116 380.5,78C 395.729,91.8909 407.895,108.058 417,126.5C 419.992,129.125 421.658,132.458 422,136.5C 423.713,137.878 425.047,139.545 426,141.5C 431.086,153.985 435.752,166.652 440,179.5C 440.818,191.429 443.484,202.762 448,213.5C 450,242.167 450,270.833 448,299.5C 443.483,310.241 440.817,321.575 440,333.5C 407.773,436.56 336.939,487.06 227.5,485C 136.889,476.965 78.0556,430.132 51,344.5C 49.8924,340.914 49.3924,337.247 49.5,333.5 Z"/></g>
<g><path style="opacity:0.039" fill="#ff0096" d="M 49.5,333.5 C 40.5819,292.893 38.5819,251.893 43.5,210.5C 44.8606,201.533 46.6939,192.533 49,183.5C 74.7806,84.9438 138.947,33.6105 241.5,29.5C 346.839,34.0391 413.005,87.0391 440,188.5C 440.464,197.425 442.131,206.092 445,214.5C 447,242.5 447,270.5 445,298.5C 442.045,306.895 440.378,315.562 440,324.5C 412.817,425.984 346.484,478.984 241,483.5C 140.664,479.183 76.8308,429.183 49.5,333.5 Z"/></g>
<g><path style="opacity:0.043" fill="#ff00a1" d="M 230.5,36.5 C 284.041,34.5339 331.375,50.3672 372.5,84C 400.181,109.884 418.681,141.051 428,177.5C 429.368,180.186 430.701,182.853 432,185.5C 433.625,199.373 436.292,213.04 440,226.5C 440.667,246.5 440.667,266.5 440,286.5C 438.966,293.305 437.299,299.971 435,306.5C 434.946,316.766 432.613,326.433 428,335.5C 408.564,406.267 363.064,451.1 291.5,470C 232.648,483.415 177.981,473.748 127.5,441C 108.516,427.35 93.0161,410.517 81,390.5C 74.1182,377.404 67.7849,364.071 62,350.5C 59.5996,340.717 56.933,331.05 54,321.5C 53.2577,315.789 52.2577,310.122 51,304.5C 50.2182,288.164 48.3849,271.997 45.5,256C 48.3876,240.016 50.2209,223.85 51,207.5C 52.6691,199.138 54.3358,190.805 56,182.5C 80.476,93.8775 138.643,45.2108 230.5,36.5 Z"/></g>
<g><path style="opacity:0.047" fill="#ff0095" d="M 368.5,86.5 C 364.553,84.5266 360.553,82.5266 356.5,80.5C 355.833,80.8333 355.167,81.1667 354.5,81.5C 351.607,79.2285 348.607,77.2285 345.5,75.5C 308.388,51.8902 267.721,42.0569 223.5,46C 193.258,48.8258 165.592,58.3258 140.5,74.5C 138.695,75.2371 137.029,76.2371 135.5,77.5C 134.833,77.1667 134.167,76.8333 133.5,76.5C 130.573,77.801 127.573,78.801 124.5,79.5C 159.233,53.8668 198.4,40.8668 242,40.5C 285.583,41.1396 325.083,53.9729 360.5,79C 363.432,81.2845 366.098,83.7845 368.5,86.5 Z"/></g>
<g><path style="opacity:0.051" fill="#ff009d" d="M 345.5,75.5 C 340.464,74.6574 335.464,73.6574 330.5,72.5C 280.788,47.2127 229.455,43.7127 176.5,62C 169.378,64.3959 162.712,67.5626 156.5,71.5C 151.124,72.2848 145.791,73.2848 140.5,74.5C 165.592,58.3258 193.258,48.8258 223.5,46C 267.721,42.0569 308.388,51.8902 345.5,75.5 Z"/></g>
<g><path style="opacity:0.047" fill="#ff0083" d="M 156.5,71.5 C 158.028,71.5173 158.528,72.184 158,73.5C 150.108,76.9093 141.942,79.7426 133.5,82C 128.154,84.6887 123.154,87.1887 118.5,89.5C 110.089,96.5746 102.756,104.575 96.5,113.5C 96.0548,116.053 96.0548,118.72 96.5,121.5C 94.8762,121.64 93.7096,120.973 93,119.5C 91.4827,120.952 91.316,122.452 92.5,124C 91.7608,128.127 91.2608,132.294 91,136.5C 89.4999,141.512 87.3332,146.178 84.5,150.5C 83.7171,152.343 83.0505,154.343 82.5,156.5C 81.3061,157.67 80.6395,157.337 80.5,155.5C 81.2071,152.214 81.5405,148.881 81.5,145.5C 83.3904,145.703 84.8904,145.037 86,143.5C 86.4988,139.514 86.6655,135.514 86.5,131.5C 87.1408,130.518 87.8075,129.518 88.5,128.5C 87.8333,127.833 87.1667,127.167 86.5,126.5C 87.3482,124.591 87.6816,122.591 87.5,120.5C 88.5,120.5 89.5,120.5 90.5,120.5C 93.1639,107.956 99.4972,97.4561 109.5,89C 114.564,85.8087 119.564,82.6421 124.5,79.5C 127.573,78.801 130.573,77.801 133.5,76.5C 134.167,76.8333 134.833,77.1667 135.5,77.5C 137.029,76.2371 138.695,75.2371 140.5,74.5C 145.791,73.2848 151.124,72.2848 156.5,71.5 Z"/></g>
<g><path style="opacity:0.294" fill="#ff0097" d="M 330.5,72.5 C 328.451,72.7058 328.117,73.5391 329.5,75C 338.833,79 348.167,83 357.5,87C 373.168,96.6277 383.334,110.128 388,127.5C 388.767,131.558 388.6,135.558 387.5,139.5C 388.58,141.996 389.914,144.33 391.5,146.5C 392.105,145.413 391.772,144.246 390.5,143C 392.107,143.019 393.774,143.185 395.5,143.5C 395.59,145.696 395.923,147.863 396.5,150C 396.461,151.894 395.794,152.894 394.5,153C 394.63,154.059 395.13,154.892 396,155.5C 397.173,164.887 397.173,174.221 396,183.5C 394.329,177.487 391.996,171.82 389,166.5C 389.205,172.636 388.705,178.803 387.5,185C 389.343,190.528 391.176,196.028 393,201.5C 393.152,192.293 392.152,183.293 390,174.5C 392.427,179.19 394.093,184.19 395,189.5C 397.747,193.677 398.747,198.344 398,203.5C 397.667,202.5 397.333,201.5 397,200.5C 396.667,203.5 396.333,206.5 396,209.5C 395.201,205.576 394.701,205.576 394.5,209.5C 394.435,212.037 395.435,214.037 397.5,215.5C 396.17,242.696 396.17,269.863 397.5,297C 396.572,297.388 395.905,298.055 395.5,299C 394.341,302.451 393.841,305.951 394,309.5C 394.822,307.212 395.489,304.878 396,302.5C 396.333,305.833 396.667,309.167 397,312.5C 397.799,308.576 398.299,308.576 398.5,312.5C 396.55,321.126 396.217,329.792 397.5,338.5C 396.747,344.804 396.247,351.137 396,357.5C 394.16,359.165 393.493,361.165 394,363.5C 394.667,362.167 395.333,360.833 396,359.5C 396.553,362.359 396.386,365.192 395.5,368C 395.755,369.326 396.422,370.326 397.5,371C 395.951,372.214 394.785,373.714 394,375.5C 393.349,373.765 393.515,372.098 394.5,370.5C 393.009,369.756 391.509,369.09 390,368.5C 389.56,370.076 388.727,371.41 387.5,372.5C 388.621,378.114 388.788,383.78 388,389.5C 387.333,390.833 386.333,391.833 385,392.5C 384.689,394.556 384.189,396.556 383.5,398.5C 382.675,399.386 381.675,399.719 380.5,399.5C 380.66,401.199 380.494,402.866 380,404.5C 369.141,419.533 354.641,429.533 336.5,434.5C 318.579,437.503 300.412,439.836 282,441.5C 274.517,440.79 267.017,440.29 259.5,440C 271.461,438.171 283.461,436.671 295.5,435.5C 296.689,435.756 297.856,436.089 299,436.5C 304.506,435.333 310.006,434.166 315.5,433C 347.21,418.279 371.377,395.779 388,365.5C 388.851,360.748 389.184,356.081 389,351.5C 390.5,350.333 392,349.167 393.5,348C 392.697,343.586 392.197,339.086 392,334.5C 390.982,335.706 390.482,335.373 390.5,333.5C 392.489,325.975 393.322,318.308 393,310.5C 391.381,316.36 389.548,322.193 387.5,328C 389.239,335.185 389.406,342.352 388,349.5C 387,350.833 386,350.833 385,349.5C 383.036,353.333 381.369,357.333 380,361.5C 378.667,363.5 377,365.167 375,366.5C 374.167,364.5 373.333,362.5 372.5,360.5C 371.914,360.709 371.414,361.043 371,361.5C 371.821,357.489 372.988,353.489 374.5,349.5C 374.222,346.104 373.055,346.104 371,349.5C 370.667,348.167 370.333,346.833 370,345.5C 369.336,348.516 369.836,351.349 371.5,354C 371.056,355.762 370.556,355.595 370,353.5C 367.238,358.245 365.572,363.245 365,368.5C 365.29,366.956 365.956,365.623 367,364.5C 367.167,365 367.333,365.5 367.5,366C 366.017,368.823 364.517,371.657 363,374.5C 358.655,378.838 354.655,383.505 351,388.5C 345.847,392.322 341.013,396.489 336.5,401C 331.092,404.052 326.425,407.219 322.5,410.5C 321.833,410.167 321.167,409.833 320.5,409.5C 319.613,411.557 317.613,413.057 314.5,414C 315.025,414.692 315.692,415.192 316.5,415.5C 322.723,412.555 329.057,409.888 335.5,407.5C 337.879,406.154 339.212,404.487 339.5,402.5C 340.308,402.808 340.975,403.308 341.5,404C 341.167,405 340.833,406 340.5,407C 331.159,412.262 322.825,417.095 315.5,421.5C 310.222,421.555 304.888,421.388 299.5,421C 292.821,423.89 285.488,426.223 277.5,428C 254.167,428.667 230.833,428.667 207.5,428C 204.833,427.333 202.167,426.667 199.5,426C 222.786,427.452 246.119,427.785 269.5,427C 273.918,426.792 278.251,426.126 282.5,425C 269.357,425.491 256.191,425.991 243,426.5C 230.96,426.517 218.96,425.85 207,424.5C 203.145,424.619 199.312,424.952 195.5,425.5C 193.992,424.169 191.658,423.003 188.5,422C 185.424,421.654 182.424,420.988 179.5,420C 180.263,419.056 181.263,418.556 182.5,418.5C 189.393,420.92 196.726,422.586 204.5,423.5C 211.519,423.035 211.852,422.202 205.5,421C 212.668,420.963 219.668,420.296 226.5,419C 217.782,418.504 209.115,419.004 200.5,420.5C 198.488,419.158 196.322,418.158 194,417.5C 191.547,418.493 189.047,418.66 186.5,418C 187.5,417.667 188.5,417.333 189.5,417C 186.899,416.08 184.232,415.413 181.5,415C 178.486,415.079 176.153,415.412 174.5,416C 173.167,415.333 171.833,414.667 170.5,414C 171.696,413.346 171.696,412.846 170.5,412.5C 169.232,413.428 167.899,413.595 166.5,413C 167.696,412.346 167.696,411.846 166.5,411.5C 165.3,412.531 163.966,413.365 162.5,414C 166.608,415.027 170.608,416.36 174.5,418C 171.118,418.159 167.785,417.659 164.5,416.5C 161.022,417.079 157.689,416.246 154.5,414C 155.833,413.333 155.833,412.667 154.5,412C 147.112,408.666 141.278,404.166 137,398.5C 135.927,399.28 134.76,399.113 133.5,398C 125.567,390.268 119.233,381.935 114.5,373C 115.635,372.251 116.635,372.417 117.5,373.5C 118.414,375.664 119.581,377.664 121,379.5C 121.448,377.776 122.282,377.109 123.5,377.5C 122,374.5 120.5,371.5 119,368.5C 118.195,370.901 117.362,370.734 116.5,368C 117.433,364.659 116.433,361.826 113.5,359.5C 113.833,358.833 114.167,358.167 114.5,357.5C 114.154,356.304 113.654,356.304 113,357.5C 111.601,354.637 110.601,351.637 110,348.5C 109.667,349.167 109.333,349.833 109,350.5C 108.355,349.354 107.522,348.354 106.5,347.5C 107.098,346.205 107.598,344.872 108,343.5C 108.333,344.5 108.667,345.5 109,346.5C 109.27,343.776 109.77,341.109 110.5,338.5C 108.216,336.148 107.216,333.315 107.5,330C 109.503,324.992 110.336,319.826 110,314.5C 109.83,316.715 109.163,318.715 108,320.5C 106.543,316.259 106.209,311.926 107,307.5C 107.333,308.5 107.667,309.5 108,310.5C 111.06,305.94 110.893,301.274 107.5,296.5C 106.338,291.533 106.171,286.533 107,281.5C 107.333,282.5 107.667,283.5 108,284.5C 109.706,281.748 110.872,278.748 111.5,275.5C 108.854,262.661 108.854,249.827 111.5,237C 110.729,233.964 109.563,231.131 108,228.5C 107.768,229.737 107.268,230.737 106.5,231.5C 106.05,223.04 107.383,214.873 110.5,207C 110.333,205.833 110.167,204.667 110,203.5C 109.333,204.833 108.667,204.833 108,203.5C 107.667,204.5 107.333,205.5 107,206.5C 105.909,200.903 106.576,195.57 109,190.5C 109.214,185.115 109.714,179.781 110.5,174.5C 109.77,171.891 109.27,169.224 109,166.5C 108.667,167.167 108.333,167.833 108,168.5C 105.956,165.901 106.289,163.901 109,162.5C 109.333,162.833 109.667,163.167 110,163.5C 110.601,160.363 111.601,157.363 113,154.5C 113.333,155.167 113.667,155.833 114,156.5C 113.644,153.64 114.644,150.973 117,148.5C 117.595,147.101 117.428,145.768 116.5,144.5C 118.583,141.416 119.749,138.082 120,134.5C 119.086,136.664 117.919,138.664 116.5,140.5C 115.833,141.833 115.167,141.833 114.5,140.5C 117.131,137.104 119.298,133.438 121,129.5C 121.423,130.956 122.256,131.456 123.5,131C 122.283,128.989 122.616,126.989 124.5,125C 123.004,124.493 121.837,124.993 121,126.5C 117.688,131.804 114.021,136.804 110,141.5C 109.667,140.833 109.333,140.167 109,139.5C 108.605,141.179 108.772,142.845 109.5,144.5C 108.831,147.028 107.998,147.028 107,144.5C 105.52,148.07 104.187,151.737 103,155.5C 102.833,153.667 102.667,151.833 102.5,150C 102.6,147.698 103.267,145.698 104.5,144C 108.819,136.435 113.986,128.268 120,119.5C 129.194,109.714 139.028,101.714 149.5,95.5C 148.975,94.8076 148.308,94.3076 147.5,94C 152.372,92.6181 156.706,90.9514 160.5,89C 154.22,89.2047 148.554,91.2047 143.5,95C 144.167,95.3333 144.833,95.6667 145.5,96C 136.027,100.821 127.527,106.987 120,114.5C 121.123,111.813 122.623,109.147 124.5,106.5C 126.65,104.851 128.65,103.018 130.5,101C 129.833,100.333 129.167,100.333 128.5,101C 120.63,108.037 113.63,115.871 107.5,124.5C 107.667,124.833 107.833,125.167 108,125.5C 110.667,121.5 114,118.167 118,115.5C 118.167,115.833 118.333,116.167 118.5,116.5C 115.722,121.44 112.388,125.94 108.5,130C 109.535,131.507 109.368,133.007 108,134.5C 107.667,134.167 107.333,133.833 107,133.5C 102.311,138.912 99.1442,145.079 97.5,152C 99.0528,154.232 99.8862,157.399 100,161.5C 100.837,155.163 101.503,155.497 102,162.5C 104.319,157.345 104.819,157.678 103.5,163.5C 104.167,164.167 104.833,164.833 105.5,165.5C 105.458,173.52 105.458,181.52 105.5,189.5C 104.953,193.064 104.286,196.564 103.5,200C 104.285,202.443 104.119,204.943 103,207.5C 102.667,203.167 102.333,198.833 102,194.5C 101.333,193.833 100.667,193.167 100,192.5C 99.1872,197.626 99.6872,202.626 101.5,207.5C 100.516,210.119 100.683,212.786 102,215.5C 102.333,213.5 102.667,211.5 103,209.5C 104.889,214.254 105.722,219.254 105.5,224.5C 104.167,224.5 102.833,224.5 101.5,224.5C 101.664,221.813 101.497,219.146 101,216.5C 100.667,218.5 100.333,220.5 100,222.5C 97.75,217.507 96.4167,212.173 96,206.5C 95.3333,210.5 94.6667,214.5 94,218.5C 93.1931,216.423 92.0264,214.589 90.5,213C 93.8136,206.056 96.147,198.723 97.5,191C 96.5774,187.72 95.9107,184.387 95.5,181C 96.4419,171.107 96.6086,161.273 96,151.5C 94.6601,154.202 93.3267,156.869 92,159.5C 91.3333,162.833 91.3333,166.167 92,169.5C 93.5034,163.523 94.3367,163.356 94.5,169C 94.0735,176.663 92.0735,183.83 88.5,190.5C 87.3112,191.429 85.9778,191.762 84.5,191.5C 85.0289,177.752 85.0289,164.085 84.5,150.5C 87.3332,146.178 89.4999,141.512 91,136.5C 91.2608,132.294 91.7608,128.127 92.5,124C 91.316,122.452 91.4827,120.952 93,119.5C 93.7096,120.973 94.8762,121.64 96.5,121.5C 96.0548,118.72 96.0548,116.053 96.5,113.5C 102.756,104.575 110.089,96.5746 118.5,89.5C 123.154,87.1887 128.154,84.6887 133.5,82C 141.942,79.7426 150.108,76.9093 158,73.5C 158.528,72.184 158.028,71.5173 156.5,71.5C 162.712,67.5626 169.378,64.3959 176.5,62C 229.455,43.7127 280.788,47.2127 330.5,72.5 Z"/></g>
<g><path style="opacity:0.047" fill="#ff0094" d="M 382.5,100.5 C 390.906,109.75 398.406,119.75 405,130.5C 440.424,198.481 446.424,269.148 423,342.5C 413.954,369.669 399.788,393.669 380.5,414.5C 381.809,411.222 383.642,408.222 386,405.5C 386.595,404.101 386.428,402.768 385.5,401.5C 388.199,399.102 389.533,396.102 389.5,392.5C 391.199,392.473 392.533,391.806 393.5,390.5C 403.949,376.268 411.783,360.602 417,343.5C 418.385,342.449 419.385,341.116 420,339.5C 420.098,332.199 422.098,325.532 426,319.5C 426.401,307.224 428.401,295.224 432,283.5C 434,265.5 434,247.5 432,229.5C 428.401,217.776 426.401,205.776 426,193.5C 422.174,187.451 420.174,180.784 420,173.5C 416.948,168.998 414.948,163.998 414,158.5C 408.589,147.343 402.922,136.343 397,125.5C 395.641,124.635 394.474,123.635 393.5,122.5C 392.533,121.194 391.199,120.527 389.5,120.5C 389.472,116.281 387.805,112.781 384.5,110C 385.308,109.692 385.975,109.192 386.5,108.5C 384.97,105.896 383.637,103.229 382.5,100.5 Z"/></g>
<g><path style="opacity:0.008" fill="#fe00ff" d="M 473.5,103.5 C 477.335,106.513 479.001,110.513 478.5,115.5C 476.827,114.657 475.66,113.324 475,111.5C 474.433,108.832 473.933,106.166 473.5,103.5 Z"/></g>
<g><path style="opacity:0.008" fill="#fe00ff" d="M 7.5,114.5 C 8.32014,118.222 6.98681,120.555 3.5,121.5C 3.58399,118.318 4.91732,115.985 7.5,114.5 Z"/></g>
<g><path style="opacity:0.047" fill="#ff0094" d="M 87.5,120.5 C 87.6816,122.591 87.3482,124.591 86.5,126.5C 87.1667,127.167 87.8333,127.833 88.5,128.5C 87.8075,129.518 87.1408,130.518 86.5,131.5C 82.0227,138.051 78.1893,145.051 75,152.5C 70.2816,165.322 65.9482,178.322 62,191.5C 60.963,204.316 58.963,216.982 56,229.5C 55.3333,247.167 55.3333,264.833 56,282.5C 58.8042,295.381 60.8042,308.381 62,321.5C 64.8212,327.495 66.8212,333.828 68,340.5C 70.6637,347.824 73.3304,355.157 76,362.5C 79.0014,369.175 82.5014,375.508 86.5,381.5C 86.9528,382.458 87.6195,383.292 88.5,384C 87.6919,384.308 87.0253,384.808 86.5,385.5C 87.5952,389.337 88.9285,393.004 90.5,396.5C 84.3567,387.603 78.8567,378.269 74,368.5C 42.6811,293.924 42.6811,219.257 74,144.5C 77.9633,136.077 82.4633,128.077 87.5,120.5 Z"/></g>
<g><path style="opacity:0.051" fill="#ff009e" d="M 393.5,122.5 C 394.474,123.635 395.641,124.635 397,125.5C 402.922,136.343 408.589,147.343 414,158.5C 414.948,163.998 416.948,168.998 420,173.5C 420.174,180.784 422.174,187.451 426,193.5C 426.401,205.776 428.401,217.776 432,229.5C 434,247.5 434,265.5 432,283.5C 428.401,295.224 426.401,307.224 426,319.5C 422.098,325.532 420.098,332.199 420,339.5C 419.385,341.116 418.385,342.449 417,343.5C 411.783,360.602 403.949,376.268 393.5,390.5C 393.335,387.15 393.502,383.817 394,380.5C 416.99,342.553 428.157,301.22 427.5,256.5C 428.012,211.536 416.845,169.869 394,131.5C 393.502,128.518 393.335,125.518 393.5,122.5 Z"/></g>
<g><path style="opacity:0.055" fill="#ff008c" d="M 330.5,72.5 C 335.464,73.6574 340.464,74.6574 345.5,75.5C 348.607,77.2285 351.607,79.2285 354.5,81.5C 355.167,81.1667 355.833,80.8333 356.5,80.5C 360.553,82.5266 364.553,84.5266 368.5,86.5C 373.188,91.1877 377.854,95.8543 382.5,100.5C 383.637,103.229 384.97,105.896 386.5,108.5C 385.975,109.192 385.308,109.692 384.5,110C 387.805,112.781 389.472,116.281 389.5,120.5C 391.199,120.527 392.533,121.194 393.5,122.5C 393.335,125.518 393.502,128.518 394,131.5C 416.845,169.869 428.012,211.536 427.5,256.5C 428.157,301.22 416.99,342.553 394,380.5C 393.502,383.817 393.335,387.15 393.5,390.5C 392.533,391.806 391.199,392.473 389.5,392.5C 389.533,396.102 388.199,399.102 385.5,401.5C 386.428,402.768 386.595,404.101 386,405.5C 383.642,408.222 381.809,411.222 380.5,414.5C 375.807,418.861 371.141,423.195 366.5,427.5C 363.22,429.14 359.886,430.807 356.5,432.5C 355.808,431.975 355.308,431.308 355,430.5C 352.287,432.72 349.454,434.72 346.5,436.5C 340.87,437.991 335.203,439.324 329.5,440.5C 327.663,440.361 327.33,439.694 328.5,438.5C 331.259,437.121 333.925,435.787 336.5,434.5C 354.641,429.533 369.141,419.533 380,404.5C 380.494,402.866 380.66,401.199 380.5,399.5C 381.675,399.719 382.675,399.386 383.5,398.5C 384.189,396.556 384.689,394.556 385,392.5C 386.333,391.833 387.333,390.833 388,389.5C 388.788,383.78 388.621,378.114 387.5,372.5C 388.727,371.41 389.56,370.076 390,368.5C 391.509,369.09 393.009,369.756 394.5,370.5C 393.515,372.098 393.349,373.765 394,375.5C 394.785,373.714 395.951,372.214 397.5,371C 396.422,370.326 395.755,369.326 395.5,368C 396.386,365.192 396.553,362.359 396,359.5C 395.333,360.833 394.667,362.167 394,363.5C 393.493,361.165 394.16,359.165 396,357.5C 396.247,351.137 396.747,344.804 397.5,338.5C 396.217,329.792 396.55,321.126 398.5,312.5C 398.299,308.576 397.799,308.576 397,312.5C 396.667,309.167 396.333,305.833 396,302.5C 395.489,304.878 394.822,307.212 394,309.5C 393.841,305.951 394.341,302.451 395.5,299C 395.905,298.055 396.572,297.388 397.5,297C 396.17,269.863 396.17,242.696 397.5,215.5C 395.435,214.037 394.435,212.037 394.5,209.5C 394.701,205.576 395.201,205.576 396,209.5C 396.333,206.5 396.667,203.5 397,200.5C 397.333,201.5 397.667,202.5 398,203.5C 398.747,198.344 397.747,193.677 395,189.5C 394.093,184.19 392.427,179.19 390,174.5C 392.152,183.293 393.152,192.293 393,201.5C 391.176,196.028 389.343,190.528 387.5,185C 388.705,178.803 389.205,172.636 389,166.5C 391.996,171.82 394.329,177.487 396,183.5C 397.173,174.221 397.173,164.887 396,155.5C 395.13,154.892 394.63,154.059 394.5,153C 395.794,152.894 396.461,151.894 396.5,150C 395.923,147.863 395.59,145.696 395.5,143.5C 393.774,143.185 392.107,143.019 390.5,143C 391.772,144.246 392.105,145.413 391.5,146.5C 389.914,144.33 388.58,141.996 387.5,139.5C 388.6,135.558 388.767,131.558 388,127.5C 383.334,110.128 373.168,96.6277 357.5,87C 348.167,83 338.833,79 329.5,75C 328.117,73.5391 328.451,72.7058 330.5,72.5 Z"/></g>
<g><path style="opacity:0.051" fill="#ff009e" d="M 86.5,131.5 C 86.6655,135.514 86.4988,139.514 86,143.5C 84.8904,145.037 83.3904,145.703 81.5,145.5C 81.5405,148.881 81.2071,152.214 80.5,155.5C 78.8586,158.276 77.3586,161.276 76,164.5C 52.8457,230.284 54.5124,295.284 81,359.5C 81.3333,361.833 81.6667,364.167 82,366.5C 83.0113,367.337 84.1779,367.67 85.5,367.5C 86.441,372.07 86.7744,376.737 86.5,381.5C 82.5014,375.508 79.0014,369.175 76,362.5C 73.3304,355.157 70.6637,347.824 68,340.5C 66.8212,333.828 64.8212,327.495 62,321.5C 60.8042,308.381 58.8042,295.381 56,282.5C 55.3333,264.833 55.3333,247.167 56,229.5C 58.963,216.982 60.963,204.316 62,191.5C 65.9482,178.322 70.2816,165.322 75,152.5C 78.1893,145.051 82.0227,138.051 86.5,131.5 Z"/></g>
<g><path style="opacity:0.008" fill="#fe00ff" d="M 484.5,133.5 C 486.371,133.859 487.871,134.859 489,136.5C 492.027,145.24 493.193,154.24 492.5,163.5C 491.5,163.5 490.5,163.5 489.5,163.5C 489.666,156.159 489.5,148.826 489,141.5C 487.741,138.644 486.241,135.977 484.5,133.5 Z"/></g>
<g><path style="opacity:0.024" fill="#fe007f" d="M 37.5,134.5 C 37.0022,137.487 36.5022,140.487 36,143.5C 26.6319,164.638 21.6319,186.972 21,210.5C 19.9741,213.239 18.4741,215.572 16.5,217.5C 18.1994,206.585 19.3661,195.585 20,184.5C 20.7485,182.668 21.7485,181.001 23,179.5C 25.5973,165.56 29.264,151.893 34,138.5C 34.9487,136.907 36.1154,135.574 37.5,134.5 Z"/></g>
<g><path style="opacity:0.797" fill="#ff48b4" d="M 325.5,143.5 C 325.167,143.5 324.833,143.5 324.5,143.5C 268.167,143.5 211.833,143.5 155.5,143.5C 155.5,160.833 155.5,178.167 155.5,195.5C 154.503,178.008 154.17,160.341 154.5,142.5C 211.669,142.168 268.669,142.501 325.5,143.5 Z"/></g>
<g><path style="opacity:1" fill="#ff95d4" d="M 324.5,143.5 C 324.5,218.833 324.5,294.167 324.5,369.5C 268.167,369.5 211.833,369.5 155.5,369.5C 155.5,352.5 155.5,335.5 155.5,318.5C 159.167,318.5 162.833,318.5 166.5,318.5C 166.5,277.5 166.5,236.5 166.5,195.5C 162.833,195.5 159.167,195.5 155.5,195.5C 155.5,178.167 155.5,160.833 155.5,143.5C 211.833,143.5 268.167,143.5 324.5,143.5 Z"/></g>
<g><path style="opacity:0.012" fill="#fe0054" d="M 492.5,163.5 C 495.577,167.545 497.411,172.211 498,177.5C 498.5,185.159 498.666,192.826 498.5,200.5C 496.695,199.763 495.029,198.763 493.5,197.5C 492.501,186.186 492.168,174.853 492.5,163.5 Z"/></g>
<g><path style="opacity:0.068" fill="#ff0099" d="M 400.5,149.5 C 406.038,159.256 410.538,169.589 414,180.5C 414.872,187.888 416.872,194.888 420,201.5C 420.777,208.823 421.444,216.157 422,223.5C 427.975,245.18 427.975,266.847 422,288.5C 419.567,314.746 412.567,339.746 401,363.5C 400.216,358.113 400.382,352.78 401.5,347.5C 399.966,337.844 399.633,328.177 400.5,318.5C 400.389,314.519 399.722,310.686 398.5,307C 399.161,304.536 399.661,302.036 400,299.5C 400.667,270.833 400.667,242.167 400,213.5C 399.661,210.964 399.161,208.464 398.5,206C 399.722,202.314 400.389,198.481 400.5,194.5C 400.681,179.477 400.681,164.477 400.5,149.5 Z"/></g>
<g><path style="opacity:0.075" fill="#ff0090" d="M 106.5,231.5 C 105.184,237.992 104.017,237.992 103,231.5C 101.47,233.226 100.47,235.226 100,237.5C 98.6453,233.591 97.6453,229.591 97,225.5C 96.586,225.043 96.086,224.709 95.5,224.5C 95.1667,226.333 94.8333,228.167 94.5,230C 95.3872,250.02 95.7205,270.02 95.5,290C 94.2254,293.586 92.5587,296.919 90.5,300C 92.0569,303.377 93.5569,306.877 95,310.5C 95.0147,314.415 95.8481,318.082 97.5,321.5C 96.3485,325.576 95.6819,329.743 95.5,334C 96.4063,343.216 96.5729,352.382 96,361.5C 93.7028,357.275 92.2028,352.775 91.5,348C 91.6667,346.5 91.8333,345 92,343.5C 92.4709,345.246 93.1376,346.913 94,348.5C 94.6612,343.442 94.3279,338.442 93,333.5C 90.9332,330.135 89.5999,326.468 89,322.5C 87.6439,321.62 86.1439,321.286 84.5,321.5C 85.3086,336.876 85.6419,352.209 85.5,367.5C 84.1779,367.67 83.0113,367.337 82,366.5C 81.6667,364.167 81.3333,361.833 81,359.5C 54.5124,295.284 52.8457,230.284 76,164.5C 77.3586,161.276 78.8586,158.276 80.5,155.5C 80.6395,157.337 81.3061,157.67 82.5,156.5C 83.0505,154.343 83.7171,152.343 84.5,150.5C 85.0289,164.085 85.0289,177.752 84.5,191.5C 85.9778,191.762 87.3112,191.429 88.5,190.5C 92.0735,183.83 94.0735,176.663 94.5,169C 94.3367,163.356 93.5034,163.523 92,169.5C 91.3333,166.167 91.3333,162.833 92,159.5C 93.3267,156.869 94.6601,154.202 96,151.5C 96.6086,161.273 96.4419,171.107 95.5,181C 95.9107,184.387 96.5774,187.72 97.5,191C 96.147,198.723 93.8136,206.056 90.5,213C 92.0264,214.589 93.1931,216.423 94,218.5C 94.6667,214.5 95.3333,210.5 96,206.5C 96.4167,212.173 97.75,217.507 100,222.5C 100.333,220.5 100.667,218.5 101,216.5C 101.497,219.146 101.664,221.813 101.5,224.5C 102.833,224.5 104.167,224.5 105.5,224.5C 105.722,219.254 104.889,214.254 103,209.5C 102.667,211.5 102.333,213.5 102,215.5C 100.683,212.786 100.516,210.119 101.5,207.5C 99.6872,202.626 99.1872,197.626 100,192.5C 100.667,193.167 101.333,193.833 102,194.5C 102.333,198.833 102.667,203.167 103,207.5C 104.119,204.943 104.285,202.443 103.5,200C 104.286,196.564 104.953,193.064 105.5,189.5C 105.458,181.52 105.458,173.52 105.5,165.5C 104.833,164.833 104.167,164.167 103.5,163.5C 104.819,157.678 104.319,157.345 102,162.5C 101.503,155.497 100.837,155.163 100,161.5C 99.8862,157.399 99.0528,154.232 97.5,152C 99.1442,145.079 102.311,138.912 107,133.5C 107.333,133.833 107.667,134.167 108,134.5C 109.368,133.007 109.535,131.507 108.5,130C 112.388,125.94 115.722,121.44 118.5,116.5C 118.333,116.167 118.167,115.833 118,115.5C 114,118.167 110.667,121.5 108,125.5C 107.833,125.167 107.667,124.833 107.5,124.5C 113.63,115.871 120.63,108.037 128.5,101C 129.167,100.333 129.833,100.333 130.5,101C 128.65,103.018 126.65,104.851 124.5,106.5C 122.623,109.147 121.123,111.813 120,114.5C 127.527,106.987 136.027,100.821 145.5,96C 144.833,95.6667 144.167,95.3333 143.5,95C 148.554,91.2047 154.22,89.2047 160.5,89C 156.706,90.9514 152.372,92.6181 147.5,94C 148.308,94.3076 148.975,94.8076 149.5,95.5C 139.028,101.714 129.194,109.714 120,119.5C 113.986,128.268 108.819,136.435 104.5,144C 103.267,145.698 102.6,147.698 102.5,150C 102.667,151.833 102.833,153.667 103,155.5C 104.187,151.737 105.52,148.07 107,144.5C 107.998,147.028 108.831,147.028 109.5,144.5C 108.772,142.845 108.605,141.179 109,139.5C 109.333,140.167 109.667,140.833 110,141.5C 114.021,136.804 117.688,131.804 121,126.5C 121.837,124.993 123.004,124.493 124.5,125C 122.616,126.989 122.283,128.989 123.5,131C 122.256,131.456 121.423,130.956 121,129.5C 119.298,133.438 117.131,137.104 114.5,140.5C 115.167,141.833 115.833,141.833 116.5,140.5C 117.919,138.664 119.086,136.664 120,134.5C 119.749,138.082 118.583,141.416 116.5,144.5C 117.428,145.768 117.595,147.101 117,148.5C 114.644,150.973 113.644,153.64 114,156.5C 113.667,155.833 113.333,155.167 113,154.5C 111.601,157.363 110.601,160.363 110,163.5C 109.667,163.167 109.333,162.833 109,162.5C 106.289,163.901 105.956,165.901 108,168.5C 108.333,167.833 108.667,167.167 109,166.5C 109.27,169.224 109.77,171.891 110.5,174.5C 109.714,179.781 109.214,185.115 109,190.5C 106.576,195.57 105.909,200.903 107,206.5C 107.333,205.5 107.667,204.5 108,203.5C 108.667,204.833 109.333,204.833 110,203.5C 110.167,204.667 110.333,205.833 110.5,207C 107.383,214.873 106.05,223.04 106.5,231.5 Z"/></g>
<g><path style="opacity:0.059" fill="#ff009a" d="M 84.5,321.5 C 83.8826,321.389 83.3826,321.056 83,320.5C 82.0296,323.444 81.1962,326.444 80.5,329.5C 79.7554,325.698 78.5887,322.031 77,318.5C 76.8333,319.167 76.6667,319.833 76.5,320.5C 77.589,325.558 79.2556,330.391 81.5,335C 80.6911,340.417 80.1911,345.917 80,351.5C 73.4867,334.298 68.8201,316.631 66,298.5C 64.1726,284.536 62.6726,270.536 61.5,256.5C 62.9315,228.555 67.4315,201.221 75,174.5C 77.4956,170.505 79.1622,166.172 80,161.5C 80.1911,167.083 80.6911,172.583 81.5,178C 80.7069,179.085 80.0402,180.252 79.5,181.5C 81.0942,184.991 81.7609,188.658 81.5,192.5C 82.8333,192.5 84.1667,192.5 85.5,192.5C 85.9138,194.808 86.2471,197.142 86.5,199.5C 80.2538,228.943 78.7538,258.609 82,288.5C 83.4374,297.186 84.9374,305.853 86.5,314.5C 86.6813,317.163 86.0146,319.497 84.5,321.5 Z"/></g>
<g><path style="opacity:0.567" fill="#ff0399" d="M 211.5,195.5 C 230.5,195.5 249.5,195.5 268.5,195.5C 268.5,236.5 268.5,277.5 268.5,318.5C 249.5,318.5 230.5,318.5 211.5,318.5C 211.5,277.5 211.5,236.5 211.5,195.5 Z"/></g>
<g><path style="opacity:0.024" fill="#fe007f" d="M 467.5,201.5 C 468.38,207.66 470.213,213.66 473,219.5C 473.667,244.167 473.667,268.833 473,293.5C 470.09,299.254 468.257,305.254 467.5,311.5C 468.833,274.833 468.833,238.167 467.5,201.5 Z"/></g>
<g><path style="opacity:0.035" fill="#fe00a9" d="M 43.5,210.5 C 38.5819,251.893 40.5819,292.893 49.5,333.5C 47.8868,333.056 46.7202,332.056 46,330.5C 44.3452,321.238 43.3452,311.904 43,302.5C 41.8649,298.095 40.5315,293.762 39,289.5C 36.4204,269.2 36.0871,248.867 38,228.5C 39.0377,222.134 40.871,216.134 43.5,210.5 Z"/></g>
<g><path style="opacity:0.078" fill="#ff009b" d="M 86.5,212.5 C 87.3088,215.328 88.3088,218.162 89.5,221C 88.5213,224.804 88.3546,228.638 89,232.5C 89.1397,229.957 89.8063,227.623 91,225.5C 91.6667,246.167 91.6667,266.833 91,287.5C 89.9562,285.285 89.2895,282.952 89,280.5C 88.4187,284.19 88.5853,287.856 89.5,291.5C 88.2325,294.314 87.3992,297.314 87,300.5C 85.365,296.043 84.365,291.377 84,286.5C 80.9583,261.68 81.7917,237.013 86.5,212.5 Z"/></g>
<g><path style="opacity:0.016" fill="#fe00be" d="M 481.5,242.5 C 483.451,244.48 484.951,246.813 486,249.5C 486.667,254.167 486.667,258.833 486,263.5C 484.758,265.859 483.258,267.859 481.5,269.5C 481.5,260.5 481.5,251.5 481.5,242.5 Z"/></g>
<g><path style="opacity:0.115" fill="#ff0094" d="M 106.5,231.5 C 107.268,230.737 107.768,229.737 108,228.5C 109.563,231.131 110.729,233.964 111.5,237C 108.854,249.827 108.854,262.661 111.5,275.5C 110.872,278.748 109.706,281.748 108,284.5C 107.667,283.5 107.333,282.5 107,281.5C 106.171,286.533 106.338,291.533 107.5,296.5C 110.893,301.274 111.06,305.94 108,310.5C 107.667,309.5 107.333,308.5 107,307.5C 106.209,311.926 106.543,316.259 108,320.5C 109.163,318.715 109.83,316.715 110,314.5C 110.336,319.826 109.503,324.992 107.5,330C 107.216,333.315 108.216,336.148 110.5,338.5C 109.77,341.109 109.27,343.776 109,346.5C 108.667,345.5 108.333,344.5 108,343.5C 107.598,344.872 107.098,346.205 106.5,347.5C 107.522,348.354 108.355,349.354 109,350.5C 109.333,349.833 109.667,349.167 110,348.5C 110.601,351.637 111.601,354.637 113,357.5C 113.654,356.304 114.154,356.304 114.5,357.5C 114.167,358.167 113.833,358.833 113.5,359.5C 116.433,361.826 117.433,364.659 116.5,368C 117.362,370.734 118.195,370.901 119,368.5C 120.5,371.5 122,374.5 123.5,377.5C 122.282,377.109 121.448,377.776 121,379.5C 119.581,377.664 118.414,375.664 117.5,373.5C 116.635,372.417 115.635,372.251 114.5,373C 119.233,381.935 125.567,390.268 133.5,398C 134.76,399.113 135.927,399.28 137,398.5C 141.278,404.166 147.112,408.666 154.5,412C 155.833,412.667 155.833,413.333 154.5,414C 157.689,416.246 161.022,417.079 164.5,416.5C 167.785,417.659 171.118,418.159 174.5,418C 170.608,416.36 166.608,415.027 162.5,414C 163.966,413.365 165.3,412.531 166.5,411.5C 167.696,411.846 167.696,412.346 166.5,413C 167.899,413.595 169.232,413.428 170.5,412.5C 171.696,412.846 171.696,413.346 170.5,414C 171.833,414.667 173.167,415.333 174.5,416C 176.153,415.412 178.486,415.079 181.5,415C 184.232,415.413 186.899,416.08 189.5,417C 188.5,417.333 187.5,417.667 186.5,418C 189.047,418.66 191.547,418.493 194,417.5C 196.322,418.158 198.488,419.158 200.5,420.5C 209.115,419.004 217.782,418.504 226.5,419C 219.668,420.296 212.668,420.963 205.5,421C 211.852,422.202 211.519,423.035 204.5,423.5C 196.726,422.586 189.393,420.92 182.5,418.5C 181.263,418.556 180.263,419.056 179.5,420C 182.424,420.988 185.424,421.654 188.5,422C 191.658,423.003 193.992,424.169 195.5,425.5C 199.312,424.952 203.145,424.619 207,424.5C 218.96,425.85 230.96,426.517 243,426.5C 256.191,425.991 269.357,425.491 282.5,425C 278.251,426.126 273.918,426.792 269.5,427C 246.119,427.785 222.786,427.452 199.5,426C 202.167,426.667 204.833,427.333 207.5,428C 230.833,428.667 254.167,428.667 277.5,428C 285.488,426.223 292.821,423.89 299.5,421C 304.888,421.388 310.222,421.555 315.5,421.5C 322.825,417.095 331.159,412.262 340.5,407C 340.833,406 341.167,405 341.5,404C 340.975,403.308 340.308,402.808 339.5,402.5C 339.212,404.487 337.879,406.154 335.5,407.5C 329.057,409.888 322.723,412.555 316.5,415.5C 315.692,415.192 315.025,414.692 314.5,414C 317.613,413.057 319.613,411.557 320.5,409.5C 321.167,409.833 321.833,410.167 322.5,410.5C 326.425,407.219 331.092,404.052 336.5,401C 341.013,396.489 345.847,392.322 351,388.5C 354.655,383.505 358.655,378.838 363,374.5C 364.517,371.657 366.017,368.823 367.5,366C 367.333,365.5 367.167,365 367,364.5C 365.956,365.623 365.29,366.956 365,368.5C 365.572,363.245 367.238,358.245 370,353.5C 370.556,355.595 371.056,355.762 371.5,354C 369.836,351.349 369.336,348.516 370,345.5C 370.333,346.833 370.667,348.167 371,349.5C 373.055,346.104 374.222,346.104 374.5,349.5C 372.988,353.489 371.821,357.489 371,361.5C 371.414,361.043 371.914,360.709 372.5,360.5C 373.333,362.5 374.167,364.5 375,366.5C 377,365.167 378.667,363.5 380,361.5C 381.369,357.333 383.036,353.333 385,349.5C 386,350.833 387,350.833 388,349.5C 389.406,342.352 389.239,335.185 387.5,328C 389.548,322.193 391.381,316.36 393,310.5C 393.322,318.308 392.489,325.975 390.5,333.5C 390.482,335.373 390.982,335.706 392,334.5C 392.197,339.086 392.697,343.586 393.5,348C 392,349.167 390.5,350.333 389,351.5C 389.184,356.081 388.851,360.748 388,365.5C 371.377,395.779 347.21,418.279 315.5,433C 310.006,434.166 304.506,435.333 299,436.5C 297.856,436.089 296.689,435.756 295.5,435.5C 283.461,436.671 271.461,438.171 259.5,440C 267.017,440.29 274.517,440.79 282,441.5C 300.412,439.836 318.579,437.503 336.5,434.5C 333.925,435.787 331.259,437.121 328.5,438.5C 327.33,439.694 327.663,440.361 329.5,440.5C 271.994,469.435 214.327,469.769 156.5,441.5C 158.549,441.294 158.883,440.461 157.5,439C 143.7,434.844 130.366,429.511 117.5,423C 108.887,415.558 101.554,407.058 95.5,397.5C 96.3482,395.591 96.6816,393.591 96.5,391.5C 95.1779,391.67 94.0113,391.337 93,390.5C 91.6815,387.594 91.3482,384.594 92,381.5C 99.5457,395.722 109.379,408.222 121.5,419C 124.566,420.132 127.566,421.132 130.5,422C 112.966,406.804 98.7992,388.971 88,368.5C 87.3292,367.748 86.4959,367.414 85.5,367.5C 85.6419,352.209 85.3086,336.876 84.5,321.5C 86.1439,321.286 87.6439,321.62 89,322.5C 89.5999,326.468 90.9332,330.135 93,333.5C 94.3279,338.442 94.6612,343.442 94,348.5C 93.1376,346.913 92.4709,345.246 92,343.5C 91.8333,345 91.6667,346.5 91.5,348C 92.2028,352.775 93.7028,357.275 96,361.5C 96.5729,352.382 96.4063,343.216 95.5,334C 95.6819,329.743 96.3485,325.576 97.5,321.5C 95.8481,318.082 95.0147,314.415 95,310.5C 93.5569,306.877 92.0569,303.377 90.5,300C 92.5587,296.919 94.2254,293.586 95.5,290C 95.7205,270.02 95.3872,250.02 94.5,230C 94.8333,228.167 95.1667,226.333 95.5,224.5C 96.086,224.709 96.586,225.043 97,225.5C 97.6453,229.591 98.6453,233.591 100,237.5C 100.47,235.226 101.47,233.226 103,231.5C 104.017,237.992 105.184,237.992 106.5,231.5 Z"/></g>
<g><path style="opacity:0.024" fill="#fe007f" d="M 16.5,295.5 C 18.2225,297.253 19.7225,299.253 21,301.5C 21.6677,321.15 25.001,340.15 31,358.5C 35.1869,364.533 37.3536,371.2 37.5,378.5C 36.5714,377.064 35.4048,375.731 34,374.5C 32.4498,367.183 30.1165,360.183 27,353.5C 25.5412,344.512 23.2079,335.845 20,327.5C 19.352,316.744 18.1853,306.078 16.5,295.5 Z"/></g>
<g><path style="opacity:0.012" fill="#ff00ac" d="M -0.5,302.5 C 0.652561,316.715 2.15256,331.049 4,345.5C 5,346.167 6,346.833 7,347.5C 19.658,413.824 54.8247,464.491 112.5,499.5C 103.167,499.5 93.8333,499.5 84.5,499.5C 70.6697,487.705 57.5031,475.372 45,462.5C 44.1376,460.913 43.4709,459.246 43,457.5C 41.6667,456.833 40.3333,456.167 39,455.5C 37.8289,453.158 36.6622,450.824 35.5,448.5C 32.0897,444.672 28.923,440.672 26,436.5C 23.5452,432.469 21.8786,428.136 21,423.5C 18.828,422.415 16.828,421.081 15,419.5C 13.8714,414.191 12.8714,408.857 12,403.5C 10.8068,401.503 9.30675,399.836 7.5,398.5C 7.7989,396.396 7.46557,394.396 6.5,392.5C 5.58317,391.873 4.58317,391.539 3.5,391.5C 2.61125,385.618 1.27791,379.951 -0.5,374.5C -0.5,350.5 -0.5,326.5 -0.5,302.5 Z"/></g>
<g><path style="opacity:0.016" fill="#fe00be" d="M 479.5,309.5 C 479.294,320.511 478.794,331.511 478,342.5C 477.233,347.435 474.4,350.102 469.5,350.5C 468.433,358.802 467.6,367.135 467,375.5C 465.903,378.265 463.903,379.931 461,380.5C 459.031,386.013 457.697,391.679 457,397.5C 455.89,399.037 454.39,399.703 452.5,399.5C 451.424,405.589 448.924,410.923 445,415.5C 423.245,453.091 392.745,481.091 353.5,499.5C 350.5,499.5 347.5,499.5 344.5,499.5C 397.147,475.356 434.647,436.689 457,383.5C 457.837,381.156 459.171,379.156 461,377.5C 460.857,371.586 462.857,366.586 467,362.5C 466.373,354.663 468.373,347.663 473,341.5C 473.67,332.124 474.67,322.791 476,313.5C 477.405,312.269 478.571,310.936 479.5,309.5 Z"/></g>
<g><path style="opacity:0.008" fill="#ff007f" d="M 499.5,311.5 C 499.5,334.5 499.5,357.5 499.5,380.5C 498.887,387.398 498.053,394.398 497,401.5C 496.028,405.495 493.695,408.161 490,409.5C 489.792,413.918 489.126,418.251 488,422.5C 486.667,425.167 484.667,427.167 482,428.5C 482.333,434.5 480,439.167 475,442.5C 474.333,444.5 473.667,446.5 473,448.5C 460.134,467.2 445.301,484.2 428.5,499.5C 418.167,499.5 407.833,499.5 397.5,499.5C 406.627,492.211 415.627,484.711 424.5,477C 432.713,468.29 440.713,459.457 448.5,450.5C 449.92,445.621 452.754,441.954 457,439.5C 457.862,436.051 459.028,432.717 460.5,429.5C 462.937,428.197 465.104,426.53 467,424.5C 467.678,419.46 468.511,414.46 469.5,409.5C 470.959,409.567 472.292,409.234 473.5,408.5C 477.25,405.969 478.916,402.302 478.5,397.5C 479.228,392.549 479.728,387.549 480,382.5C 481.092,380.883 482.592,379.883 484.5,379.5C 487.452,378.641 489.285,376.641 490,373.5C 492.091,365.638 492.924,357.638 492.5,349.5C 492.5,349.167 492.5,348.833 492.5,348.5C 495.768,344.889 497.601,340.555 498,335.5C 498.5,327.841 498.666,320.174 498.5,312.5C 498.5,311.833 498.833,311.5 499.5,311.5 Z"/></g>
<g><path style="opacity:0.012" fill="#fe0054" d="M 498.5,312.5 C 498.666,320.174 498.5,327.841 498,335.5C 497.601,340.555 495.768,344.889 492.5,348.5C 492.5,337.167 492.5,325.833 492.5,314.5C 494.685,314.296 496.685,313.63 498.5,312.5 Z"/></g>
<g><path style="opacity:0.008" fill="#fe00ff" d="M 492.5,349.5 C 492.924,357.638 492.091,365.638 490,373.5C 489.285,376.641 487.452,378.641 484.5,379.5C 486.514,376.806 488.014,373.806 489,370.5C 489.5,363.508 489.666,356.508 489.5,349.5C 490.5,349.5 491.5,349.5 492.5,349.5 Z"/></g>
<g><path style="opacity:0.024" fill="#fe007f" d="M 456.5,359.5 C 433.726,429.275 387.393,475.941 317.5,499.5C 314.5,499.5 311.5,499.5 308.5,499.5C 357.292,485.901 396.459,458.901 426,418.5C 433.182,405.465 440.349,392.465 447.5,379.5C 449.044,373.104 450.711,366.771 452.5,360.5C 453.959,360.567 455.292,360.234 456.5,359.5 Z"/></g>
<g><path style="opacity:0.959" fill="#ff81cc" d="M 324.5,143.5 C 324.833,143.5 325.167,143.5 325.5,143.5C 325.5,219.167 325.5,294.833 325.5,370.5C 268.5,370.5 211.5,370.5 154.5,370.5C 154.17,352.992 154.503,335.659 155.5,318.5C 155.5,335.5 155.5,352.5 155.5,369.5C 211.833,369.5 268.167,369.5 324.5,369.5C 324.5,294.167 324.5,218.833 324.5,143.5 Z"/></g>
<g><path style="opacity:0.008" fill="#ff007f" d="M -0.5,374.5 C 1.27791,379.951 2.61125,385.618 3.5,391.5C 3.72466,394.546 5.058,396.879 7.5,398.5C 9.30675,399.836 10.8068,401.503 12,403.5C 12.8714,408.857 13.8714,414.191 15,419.5C 16.828,421.081 18.828,422.415 21,423.5C 21.8786,428.136 23.5452,432.469 26,436.5C 28.923,440.672 32.0897,444.672 35.5,448.5C 36.6622,450.824 37.8289,453.158 39,455.5C 40.3333,456.167 41.6667,456.833 43,457.5C 43.4709,459.246 44.1376,460.913 45,462.5C 57.5031,475.372 70.6697,487.705 84.5,499.5C 74.5,499.5 64.5,499.5 54.5,499.5C 33.9922,481.189 17.1589,460.189 4,436.5C 2.16398,432.154 0.663976,427.821 -0.5,423.5C -0.5,407.167 -0.5,390.833 -0.5,374.5 Z"/></g>
<g><path style="opacity:0.024" fill="#fe007f" d="M 37.5,378.5 C 38.5236,380.512 40.0236,382.178 42,383.5C 43.2061,387.855 44.5394,392.189 46,396.5C 48.941,398.261 50.6077,400.928 51,404.5C 78.9952,452.3 119.828,483.966 173.5,499.5C 170.833,499.5 168.167,499.5 165.5,499.5C 103.209,479.533 60.542,439.199 37.5,378.5 Z"/></g>
<g><path style="opacity:0.004" fill="#fe00ff" d="M 499.5,380.5 C 499.5,400.167 499.5,419.833 499.5,439.5C 497.323,439.586 495.323,440.253 493.5,441.5C 493.457,449.63 491.623,457.296 488,464.5C 485.544,466.211 482.877,467.544 480,468.5C 480.232,476.388 476.732,481.721 469.5,484.5C 469.016,490.31 466.016,493.977 460.5,495.5C 459.82,496.86 459.153,498.193 458.5,499.5C 448.5,499.5 438.5,499.5 428.5,499.5C 445.301,484.2 460.134,467.2 473,448.5C 473.667,446.5 474.333,444.5 475,442.5C 480,439.167 482.333,434.5 482,428.5C 484.667,427.167 486.667,425.167 488,422.5C 489.126,418.251 489.792,413.918 490,409.5C 493.695,408.161 496.028,405.495 497,401.5C 498.053,394.398 498.887,387.398 499.5,380.5 Z"/></g>
<g><path style="opacity:0.008" fill="#fe00ff" d="M 3.5,391.5 C 4.58317,391.539 5.58317,391.873 6.5,392.5C 7.46557,394.396 7.7989,396.396 7.5,398.5C 5.058,396.879 3.72466,394.546 3.5,391.5 Z"/></g>
<g><path style="opacity:0.059" fill="#ff0087" d="M 85.5,367.5 C 86.4959,367.414 87.3292,367.748 88,368.5C 98.7992,388.971 112.966,406.804 130.5,422C 127.566,421.132 124.566,420.132 121.5,419C 109.379,408.222 99.5457,395.722 92,381.5C 91.3482,384.594 91.6815,387.594 93,390.5C 94.0113,391.337 95.1779,391.67 96.5,391.5C 96.6816,393.591 96.3482,395.591 95.5,397.5C 101.554,407.058 108.887,415.558 117.5,423C 130.366,429.511 143.7,434.844 157.5,439C 158.883,440.461 158.549,441.294 156.5,441.5C 151.531,440.373 146.531,439.373 141.5,438.5C 138.628,437.474 136.128,435.808 134,433.5C 133.612,434.428 132.945,435.095 132,435.5C 129.846,434.726 127.679,434.059 125.5,433.5C 108.679,426.013 97.0125,413.68 90.5,396.5C 88.9285,393.004 87.5952,389.337 86.5,385.5C 87.0253,384.808 87.6919,384.308 88.5,384C 87.6195,383.292 86.9528,382.458 86.5,381.5C 86.7744,376.737 86.441,372.07 85.5,367.5 Z"/></g>
<g><path style="opacity:0.008" fill="#fe00ff" d="M 478.5,397.5 C 478.916,402.302 477.25,405.969 473.5,408.5C 473.578,403.999 475.245,400.332 478.5,397.5 Z"/></g>
<g><path style="opacity:0.004" fill="#fe00ff" d="M -0.5,423.5 C 0.663976,427.821 2.16398,432.154 4,436.5C 17.1589,460.189 33.9922,481.189 54.5,499.5C 44.1667,499.5 33.8333,499.5 23.5,499.5C 22.2702,497.703 21.6036,495.703 21.5,493.5C 18.9009,493.451 16.7342,492.451 15,490.5C 13.8035,487.911 12.8035,485.244 12,482.5C 9.96557,480.968 7.7989,479.635 5.5,478.5C 3.86797,474.195 1.86797,470.195 -0.5,466.5C -0.5,452.167 -0.5,437.833 -0.5,423.5 Z"/></g>
<g><path style="opacity:0.047" fill="#ff0095" d="M 366.5,427.5 C 360.445,433.372 353.778,438.539 346.5,443C 279.885,480.641 212.551,481.974 144.5,447C 137.748,442.969 131.415,438.469 125.5,433.5C 127.679,434.059 129.846,434.726 132,435.5C 132.945,435.095 133.612,434.428 134,433.5C 136.128,435.808 138.628,437.474 141.5,438.5C 141.953,439.458 142.619,440.292 143.5,441C 201.93,472.85 261.93,475.85 323.5,450C 331.816,446.498 339.483,441.998 346.5,436.5C 349.454,434.72 352.287,432.72 355,430.5C 355.308,431.308 355.808,431.975 356.5,432.5C 359.886,430.807 363.22,429.14 366.5,427.5 Z"/></g>
<g><path style="opacity:0.051" fill="#ff009e" d="M 346.5,436.5 C 339.483,441.998 331.816,446.498 323.5,450C 261.93,475.85 201.93,472.85 143.5,441C 142.619,440.292 141.953,439.458 141.5,438.5C 146.531,439.373 151.531,440.373 156.5,441.5C 214.327,469.769 271.994,469.435 329.5,440.5C 335.203,439.324 340.87,437.991 346.5,436.5 Z"/></g>
<g><path style="opacity:0.004" fill="#fe0000" d="M 499.5,439.5 C 499.5,448.833 499.5,458.167 499.5,467.5C 498.67,474.151 495.503,479.485 490,483.5C 489.276,488.389 486.776,492.055 482.5,494.5C 481.544,496.075 480.877,497.742 480.5,499.5C 473.167,499.5 465.833,499.5 458.5,499.5C 459.153,498.193 459.82,496.86 460.5,495.5C 466.016,493.977 469.016,490.31 469.5,484.5C 476.732,481.721 480.232,476.388 480,468.5C 482.877,467.544 485.544,466.211 488,464.5C 491.623,457.296 493.457,449.63 493.5,441.5C 495.323,440.253 497.323,439.586 499.5,439.5 Z"/></g>
<g><path style="opacity:0.063" fill="#ff009b" d="M 318.5,441.5 C 319.552,441.351 320.552,441.517 321.5,442C 269.616,464.932 217.616,465.266 165.5,443C 175.037,442.567 184.37,443.733 193.5,446.5C 194.167,446.333 194.833,446.167 195.5,446C 194.5,445.667 193.5,445.333 192.5,445C 200.491,445.062 208.325,444.229 216,442.5C 233.664,445.148 251.33,445.148 269,442.5C 272.854,443.728 276.854,444.394 281,444.5C 293.643,444.651 306.143,443.651 318.5,441.5 Z"/></g>
<g><path style="opacity:0.004" fill="#fe0000" d="M -0.5,466.5 C 1.86797,470.195 3.86797,474.195 5.5,478.5C 7.7989,479.635 9.96557,480.968 12,482.5C 12.8035,485.244 13.8035,487.911 15,490.5C 16.7342,492.451 18.9009,493.451 21.5,493.5C 21.6036,495.703 22.2702,497.703 23.5,499.5C 16.5,499.5 9.5,499.5 2.5,499.5C 1.48615,497.426 0.486147,495.426 -0.5,493.5C -0.5,484.5 -0.5,475.5 -0.5,466.5 Z"/></g>
</svg>
